<svg width="25" height="25" viewBox="0 0 25 25" fill="none" xmlns="http://www.w3.org/2000/svg">
<g clip-path="url(#clip0_1226_3292)">
<path d="M6.47135 4.65525C6.8679 5.05457 7.27684 5.46749 7.69074 5.86557C8.2075 6.36256 8.91633 6.35143 9.41574 5.8359C9.87673 5.36117 9.85442 4.65772 9.36369 4.16321C8.25459 3.04684 7.15416 1.94655 6.09339 0.895706C5.56796 0.37523 4.86656 0.369048 4.3498 0.879634C3.3671 1.85135 2.37448 2.84533 1.41533 3.80839L1.0386 4.18546C0.764735 4.45991 0.648248 4.80731 0.701535 5.18932C0.765974 5.64922 1.0448 5.98178 1.50827 6.15239C1.94571 6.31311 2.38564 6.20926 2.74501 5.85939C3.12173 5.49098 3.4997 5.11267 3.86403 4.74673C3.90368 4.70717 3.94334 4.66761 3.98299 4.62805V20.3709C3.94086 20.3276 3.89873 20.2856 3.85783 20.2436C3.76613 20.1521 3.67567 20.0594 3.5852 19.9666C3.29523 19.6724 2.99657 19.3683 2.68305 19.0827C2.19851 18.6426 1.50579 18.6661 1.03489 19.1371C0.580091 19.592 0.570177 20.3252 1.01134 20.7727C2.14399 21.92 3.27912 23.0524 4.38202 24.1403C4.62491 24.3789 4.92108 24.4989 5.21726 24.4989C5.50971 24.4989 5.80217 24.3814 6.04134 24.1465C7.21736 22.9881 8.35125 21.8557 9.41202 20.7776C9.66234 20.5242 9.78131 20.1805 9.73918 19.8344C9.69456 19.4721 9.48266 19.1507 9.15798 18.9516C8.65486 18.6426 8.10836 18.718 7.65852 19.1569C7.28552 19.5216 6.91251 19.8962 6.5519 20.2572C6.51224 20.2967 6.47259 20.3375 6.43293 20.3771V4.61445L6.47383 4.65525H6.47135Z" fill="#1C516A"/>
<path d="M10.7405 3.69605C10.8892 3.73314 11.0317 3.73685 11.1655 3.73685C13.5622 3.73685 15.9601 3.73685 18.3567 3.73685C20.0198 3.73685 21.6828 3.73685 23.3458 3.73685H23.3768C23.4487 3.73685 23.5305 3.73685 23.6172 3.72695C24.1228 3.6639 24.5491 3.27571 24.6545 2.78243C24.7672 2.25578 24.5454 1.75879 24.0881 1.51895C23.8713 1.40398 23.5949 1.33722 23.3297 1.33598C21.7485 1.32856 20.14 1.32856 18.586 1.3298H11.712C11.6451 1.3298 11.5782 1.3298 11.5113 1.3298C11.3316 1.32733 11.1445 1.32609 10.9561 1.33722C10.3712 1.3743 9.88666 1.84162 9.82966 2.42391C9.77266 3.00249 10.1642 3.54893 10.7405 3.69605Z" fill="#1C516A"/>
<path d="M10.448 13.5292C10.6575 13.6355 10.9165 13.6949 11.1767 13.6961C12.7592 13.7035 14.3677 13.7023 15.9242 13.7023H17.2402C17.8102 13.7023 18.3803 13.7011 18.9503 13.6986C20.3568 13.6949 21.8117 13.6912 23.2405 13.711C23.2504 13.711 23.2603 13.711 23.2703 13.711C23.8242 13.711 24.1563 13.4983 24.3385 13.3178C24.5603 13.0978 24.6867 12.7949 24.6842 12.4883C24.678 11.7626 24.1191 11.294 23.2603 11.294H11.1854C11.1098 11.294 11.0243 11.2928 10.9338 11.3002C10.4146 11.3484 9.97093 11.7354 9.85444 12.2423C9.733 12.7701 9.97217 13.2882 10.448 13.5292Z" fill="#1C516A"/>
<path d="M23.5887 21.2631C23.4958 21.2532 23.4066 21.2545 23.3285 21.2557H23.269H11.23H11.1754C11.106 21.2545 11.0267 21.2545 10.9462 21.2607C10.4257 21.3052 9.97835 21.6872 9.85814 22.1916C9.73051 22.7232 9.98207 23.2622 10.4678 23.5033C10.6674 23.6022 10.9164 23.6566 11.1692 23.6578C12.7592 23.664 14.3739 23.664 15.9365 23.6628H23.2368H23.3062C23.331 23.6628 23.3557 23.6628 23.3818 23.6628C23.445 23.6628 23.5119 23.6615 23.5813 23.6541C24.1959 23.5948 24.6792 23.0718 24.683 22.4623C24.6867 21.8528 24.2059 21.3249 23.5887 21.2619V21.2631Z" fill="#1C516A"/>
<path d="M23.9332 6.42085C23.7164 6.33802 23.4847 6.32689 23.3062 6.32689C19.741 6.32318 16.1757 6.32442 12.6105 6.32442H11.2027H11.1445C11.0639 6.32442 10.9735 6.32318 10.8781 6.33431C10.4654 6.38252 10.1135 6.63843 9.93624 7.01797C9.76151 7.39133 9.79002 7.81661 10.0131 8.15659C10.2547 8.525 10.6253 8.71292 11.1123 8.71292H11.1172C12.6662 8.70921 14.2165 8.70921 15.7655 8.71045H20.4721C21.4722 8.71045 22.4734 8.71168 23.4735 8.70797C24.072 8.7055 24.5479 8.31731 24.6582 7.74244C24.7672 7.17004 24.4698 6.62731 23.9332 6.42332V6.42085Z" fill="#1C516A"/>
<path d="M10.4369 18.5017C10.6475 18.6067 10.9053 18.6648 11.1643 18.6661C12.3255 18.671 13.5015 18.6723 14.6601 18.6723C15.0939 18.6723 15.5264 18.6723 15.9539 18.6723H23.2405H23.3087C23.3867 18.6723 23.4648 18.6723 23.5429 18.6686C24.1389 18.6352 24.616 18.1852 24.6768 17.5979C24.7387 17.007 24.3471 16.4581 23.7659 16.3209C23.6185 16.2862 23.4772 16.2862 23.3533 16.2875H23.3173C19.2738 16.2875 15.2302 16.2875 11.1866 16.2875H11.1395C11.0652 16.2875 10.9821 16.2862 10.8954 16.2949C10.3885 16.348 9.95978 16.7362 9.8532 17.2394C9.74291 17.7574 9.98456 18.2754 10.4394 18.5017H10.4369Z" fill="#1C516A"/>
</g>
<defs>
<clipPath id="clip0_1226_3292">
<rect width="24" height="24" fill="white" transform="translate(0.684204 0.5)"/>
</clipPath>
</defs>
</svg>
