<?xml version="1.0" encoding="utf-8"?>
<!-- Generator: Adobe Illustrator 18.0.0, SVG Export Plug-In . SVG Version: 6.00 Build 0)  -->
<!DOCTYPE svg PUBLIC "-//W3C//DTD SVG 1.1//EN" "http://www.w3.org/Graphics/SVG/1.1/DTD/svg11.dtd">
<svg version="1.1" id="Layer_1" xmlns="http://www.w3.org/2000/svg" xmlns:xlink="http://www.w3.org/1999/xlink" x="0px" y="0px"
	 viewBox="0 0 891.4 282" enable-background="new 0 0 891.4 282" xml:space="preserve">
<g>
	<g>
		<path fill="#6DB8C1" d="M281.3,246.3h-10.5V196h28.9v8.8h-18.4v13h17.1v8.7h-17.1V246.3z"/>
		<path fill="#6DB8C1" d="M324.7,247c-6.2,0-11-1.7-14.5-5.1c-3.5-3.4-5.2-8.3-5.2-14.5c0-6.5,1.6-11.4,4.8-15
			c3.2-3.5,7.7-5.3,13.4-5.3c5.4,0,9.7,1.6,12.7,4.7c3,3.1,4.5,7.4,4.5,12.9v5.1h-24.8c0.1,3,1,5.3,2.7,7c1.7,1.7,4,2.5,7,2.5
			c2.3,0,4.5-0.2,6.6-0.7s4.2-1.3,6.5-2.3v8.1c-1.8,0.9-3.8,1.6-5.9,2C330.3,246.8,327.7,247,324.7,247z M323.2,214.6
			c-2.2,0-4,0.7-5.2,2.1c-1.3,1.4-2,3.4-2.2,6h14.7c0-2.6-0.7-4.6-2-6C327.2,215.3,325.5,214.6,323.2,214.6z"/>
		<path fill="#6DB8C1" d="M372,246.3l-2-5.2h-0.3c-1.8,2.2-3.6,3.8-5.5,4.6c-1.9,0.9-4.3,1.3-7.3,1.3c-3.7,0-6.6-1.1-8.7-3.2
			c-2.1-2.1-3.2-5.1-3.2-9c0-4.1,1.4-7.1,4.3-9c2.9-1.9,7.2-3,12.9-3.2l6.7-0.2v-1.7c0-3.9-2-5.9-6-5.9c-3.1,0-6.7,0.9-10.9,2.8
			l-3.5-7.1c4.4-2.3,9.3-3.5,14.7-3.5c5.2,0,9.1,1.1,11.9,3.4c2.8,2.3,4.1,5.7,4.1,10.3v25.7H372z M368.9,228.5l-4.1,0.1
			c-3.1,0.1-5.3,0.6-6.8,1.7c-1.5,1-2.2,2.5-2.2,4.6c0,3,1.7,4.4,5.1,4.4c2.4,0,4.4-0.7,5.8-2.1c1.5-1.4,2.2-3.3,2.2-5.6V228.5z"/>
		<path fill="#6DB8C1" d="M410.3,207.1c1.4,0,2.6,0.1,3.5,0.3l-0.8,9.9c-0.9-0.2-1.9-0.3-3.1-0.3c-3.4,0-6,0.9-7.8,2.6
			c-1.9,1.7-2.8,4.1-2.8,7.2v19.6h-10.5v-38.5h8l1.6,6.5h0.5c1.2-2.2,2.8-3.9,4.8-5.2C405.7,207.8,407.9,207.1,410.3,207.1z"/>
		<path fill="#6DB8C1" d="M429.9,246.3h-10.5v-53.6h10.5V246.3z"/>
		<path fill="#6DB8C1" d="M457,247c-6.2,0-11-1.7-14.5-5.1c-3.5-3.4-5.2-8.3-5.2-14.5c0-6.5,1.6-11.4,4.8-15
			c3.2-3.5,7.7-5.3,13.4-5.3c5.4,0,9.7,1.6,12.7,4.7c3,3.1,4.5,7.4,4.5,12.9v5.1h-24.8c0.1,3,1,5.3,2.7,7c1.7,1.7,4,2.5,7,2.5
			c2.3,0,4.5-0.2,6.6-0.7s4.2-1.3,6.5-2.3v8.1c-1.8,0.9-3.8,1.6-5.9,2C462.5,246.8,460,247,457,247z M455.5,214.6
			c-2.2,0-4,0.7-5.2,2.1c-1.3,1.4-2,3.4-2.2,6h14.7c0-2.6-0.7-4.6-2-6C459.5,215.3,457.7,214.6,455.5,214.6z"/>
		<path fill="#6DB8C1" d="M506.7,234.9c0,4-1.4,7-4.1,9c-2.7,2.1-6.9,3.1-12.3,3.1c-2.8,0-5.2-0.2-7.2-0.6c-2-0.4-3.8-0.9-5.5-1.7
			v-8.7c2,0.9,4.2,1.7,6.6,2.3c2.4,0.6,4.6,0.9,6.5,0.9c3.8,0,5.7-1.1,5.7-3.3c0-0.8-0.3-1.5-0.8-2c-0.5-0.5-1.4-1.1-2.6-1.8
			c-1.2-0.7-2.9-1.4-5-2.3c-3-1.2-5.1-2.4-6.5-3.4c-1.4-1.1-2.4-2.3-3-3.6c-0.6-1.4-0.9-3-0.9-5c0-3.4,1.3-6.1,4-7.9
			c2.7-1.9,6.4-2.8,11.3-2.8c4.6,0,9.2,1,13.5,3l-3.2,7.6c-1.9-0.8-3.7-1.5-5.4-2c-1.7-0.5-3.4-0.8-5.1-0.8c-3.1,0-4.7,0.8-4.7,2.5
			c0,0.9,0.5,1.8,1.5,2.4c1,0.7,3.2,1.7,6.6,3.1c3,1.2,5.2,2.4,6.6,3.4c1.4,1.1,2.4,2.3,3.1,3.7C506.4,231.4,506.7,233,506.7,234.9z
			"/>
		<path fill="#6DB8C1" d="M540.4,234.9c0,4-1.4,7-4.1,9c-2.7,2.1-6.9,3.1-12.3,3.1c-2.8,0-5.2-0.2-7.2-0.6c-2-0.4-3.8-0.9-5.5-1.7
			v-8.7c2,0.9,4.2,1.7,6.6,2.3c2.4,0.6,4.6,0.9,6.5,0.9c3.8,0,5.7-1.1,5.7-3.3c0-0.8-0.3-1.5-0.8-2c-0.5-0.5-1.4-1.1-2.6-1.8
			c-1.2-0.7-2.9-1.4-5-2.3c-3-1.2-5.1-2.4-6.5-3.4c-1.4-1.1-2.4-2.3-3-3.6c-0.6-1.4-0.9-3-0.9-5c0-3.4,1.3-6.1,4-7.9
			c2.7-1.9,6.4-2.8,11.3-2.8c4.6,0,9.2,1,13.5,3l-3.2,7.6c-1.9-0.8-3.7-1.5-5.4-2c-1.7-0.5-3.4-0.8-5.1-0.8c-3.1,0-4.7,0.8-4.7,2.5
			c0,0.9,0.5,1.8,1.5,2.4c1,0.7,3.2,1.7,6.6,3.1c3,1.2,5.2,2.4,6.6,3.4c1.4,1.1,2.4,2.3,3.1,3.7C540,231.4,540.4,233,540.4,234.9z"
			/>
		<path fill="#6DB8C1" d="M557.7,246.3h-10.5v-53.6h10.5V246.3z"/>
		<path fill="#6DB8C1" d="M561.8,207.8h11.5l7.3,21.7c0.6,1.9,1,4.1,1.3,6.7h0.2c0.3-2.4,0.7-4.6,1.5-6.7l7.1-21.7h11.3l-16.3,43.5
			c-1.5,4-3.6,7-6.4,9c-2.8,2-6,3-9.7,3c-1.8,0-3.6-0.2-5.3-0.6v-8.3c1.3,0.3,2.6,0.4,4.1,0.4c1.9,0,3.5-0.6,4.9-1.7
			c1.4-1.1,2.5-2.9,3.3-5.2l0.6-1.9L561.8,207.8z"/>
		<path fill="#6DB8C1" d="M643.3,247c-12,0-18-6.6-18-19.7c0-6.5,1.6-11.5,4.9-15c3.3-3.5,7.9-5.2,14-5.2c4.5,0,8.5,0.9,12,2.6
			l-3.1,8.1c-1.7-0.7-3.2-1.2-4.6-1.6c-1.4-0.4-2.8-0.6-4.3-0.6c-5.5,0-8.2,3.9-8.2,11.6c0,7.5,2.7,11.3,8.2,11.3
			c2,0,3.9-0.3,5.6-0.8c1.7-0.5,3.4-1.4,5.2-2.5v9c-1.7,1.1-3.4,1.8-5.2,2.2C648.1,246.8,645.9,247,643.3,247z"/>
		<path fill="#6DB8C1" d="M689.8,246.3l-1.4-4.9h-0.6c-1.1,1.8-2.7,3.2-4.8,4.2c-2.1,1-4.4,1.5-7.1,1.5c-4.5,0-7.9-1.2-10.2-3.6
			c-2.3-2.4-3.4-5.9-3.4-10.5v-25.1h10.5v22.5c0,2.8,0.5,4.9,1.5,6.3c1,1.4,2.6,2.1,4.7,2.1c2.9,0,5.1-1,6.4-2.9c1.3-2,2-5.2,2-9.8
			v-18.1h10.5v38.5H689.8z"/>
		<path fill="#6DB8C1" d="M729,207.1c1.4,0,2.6,0.1,3.5,0.3l-0.8,9.9c-0.9-0.2-1.9-0.3-3.1-0.3c-3.4,0-6,0.9-7.8,2.6
			c-1.9,1.7-2.8,4.1-2.8,7.2v19.6h-10.5v-38.5h8l1.6,6.5h0.5c1.2-2.2,2.8-3.9,4.8-5.2C724.4,207.8,726.6,207.1,729,207.1z"/>
		<path fill="#6DB8C1" d="M737.7,197.9c0-3.4,1.9-5.1,5.7-5.1c3.8,0,5.7,1.7,5.7,5.1c0,1.6-0.5,2.9-1.4,3.8c-1,0.9-2.4,1.4-4.3,1.4
			C739.6,203,737.7,201.3,737.7,197.9z M748.6,246.3h-10.5v-38.5h10.5V246.3z"/>
		<path fill="#6DB8C1" d="M793.2,227c0,6.3-1.7,11.2-5,14.7c-3.3,3.5-7.9,5.3-13.8,5.3c-3.7,0-7-0.8-9.8-2.4c-2.8-1.6-5-3.9-6.5-7
			c-1.5-3-2.3-6.6-2.3-10.6c0-6.3,1.6-11.2,4.9-14.7c3.3-3.5,7.9-5.2,13.9-5.2c3.7,0,7,0.8,9.8,2.4c2.8,1.6,5,3.9,6.5,6.9
			C792.5,219.4,793.2,223,793.2,227z M766.6,227c0,3.8,0.6,6.7,1.9,8.6c1.3,2,3.3,2.9,6.1,2.9c2.8,0,4.8-1,6-2.9
			c1.2-1.9,1.8-4.8,1.8-8.7c0-3.8-0.6-6.7-1.9-8.6c-1.2-1.9-3.3-2.9-6.1-2.9c-2.8,0-4.8,0.9-6.1,2.8
			C767.2,220.3,766.6,223.2,766.6,227z"/>
		<path fill="#6DB8C1" d="M827.8,246.3l-1.4-4.9h-0.6c-1.1,1.8-2.7,3.2-4.8,4.2c-2.1,1-4.4,1.5-7.1,1.5c-4.5,0-7.9-1.2-10.2-3.6
			c-2.3-2.4-3.4-5.9-3.4-10.5v-25.1h10.5v22.5c0,2.8,0.5,4.9,1.5,6.3c1,1.4,2.6,2.1,4.7,2.1c2.9,0,5.1-1,6.4-2.9c1.3-2,2-5.2,2-9.8
			v-18.1h10.5v38.5H827.8z"/>
		<path fill="#6DB8C1" d="M872.4,234.9c0,4-1.4,7-4.1,9c-2.7,2.1-6.9,3.1-12.3,3.1c-2.8,0-5.2-0.2-7.2-0.6c-2-0.4-3.8-0.9-5.5-1.7
			v-8.7c2,0.9,4.2,1.7,6.6,2.3c2.4,0.6,4.6,0.9,6.5,0.9c3.8,0,5.7-1.1,5.7-3.3c0-0.8-0.3-1.5-0.8-2c-0.5-0.5-1.4-1.1-2.6-1.8
			c-1.2-0.7-2.9-1.4-5-2.3c-3-1.2-5.1-2.4-6.5-3.4c-1.4-1.1-2.4-2.3-3-3.6c-0.6-1.4-0.9-3-0.9-5c0-3.4,1.3-6.1,4-7.9
			c2.7-1.9,6.4-2.8,11.3-2.8c4.6,0,9.2,1,13.5,3l-3.2,7.6c-1.9-0.8-3.7-1.5-5.4-2c-1.7-0.5-3.4-0.8-5.1-0.8c-3.1,0-4.7,0.8-4.7,2.5
			c0,0.9,0.5,1.8,1.5,2.4c1,0.7,3.2,1.7,6.6,3.1c3,1.2,5.2,2.4,6.6,3.4c1.4,1.1,2.4,2.3,3.1,3.7C872,231.4,872.4,233,872.4,234.9z"
			/>
		<path fill="#6DB8C1" d="M877.7,241.4c0-1.9,0.5-3.4,1.6-4.4c1-1,2.5-1.5,4.5-1.5c1.9,0,3.4,0.5,4.4,1.5c1,1,1.6,2.5,1.6,4.3
			c0,1.8-0.5,3.2-1.6,4.3c-1.1,1-2.5,1.6-4.4,1.6c-1.9,0-3.4-0.5-4.5-1.5C878.2,244.7,877.7,243.3,877.7,241.4z"/>
	</g>
</g>
<g>
	<g>
		<path fill="#FFFFFF" d="M123.7,8.2c-36.8,0-70,21.9-84.6,55.7L9.6,130l27,24.1v29.9l31.1,0V99.7c0-31.6,25.7-57.2,57.2-57.2
			c31.6,0,57.2,25.7,57.2,57.2c0,17.6-8,34-21.8,44.9c-10.2,8-22.4,12.3-35.4,12.3c-10.3,0-20.3-3.4-27-6.8v73l59,0v-37l1.3-0.5
			c34.9-14.2,57.5-47.7,57.5-85.4C215.7,49.5,174.4,8.2,123.7,8.2z M47.9,112.5c-7.2,0-13-5.8-13-13c0-7.2,5.8-13,13-13
			c7.2,0,13,5.8,13,13C60.9,106.7,55.1,112.5,47.9,112.5z"/>
		<path fill="#6DB8C1" d="M124.8,127.6c15.5,0,28.1-12.6,28.1-28.1c0-15.5-12.6-28.1-28.1-28.1c-15.5,0-28.1,12.6-28.1,28.1
			C96.7,115,109.3,127.6,124.8,127.6z"/>
		<path fill="#FFFFFF" d="M127.4,275.7c15.6,0,28.5-12.2,29.5-27.6h-59C99,263.6,111.8,275.7,127.4,275.7z"/>
	</g>
</g>
<g>
	<g>
		<path fill="#FFFFFF" d="M432.9,96.7L432.9,96.7c-1-20.8-18.6-37.7-39.5-37.7c-21.8,0-39.5,17.7-39.5,39.5
			c0,21.8,17.7,39.5,39.5,39.5c9.9,0,19.6-3.8,26.9-10.5v8.3h12.6V98.4L432.9,96.7z M420.3,98.4c0,15.2-12.4,27.5-27.5,27.5
			c-15.2,0-27.5-12.4-27.5-27.5c0-15.2,12.4-27.5,27.5-27.5C408,70.9,420.3,83.2,420.3,98.4z"/>
		<path fill="#FFFFFF" d="M309.8,59c-21.8,0-39.5,17.7-39.5,39.5v62.5H283v-33.6c7.3,6.7,17,10.6,26.9,10.6
			c21.8,0,39.5-17.7,39.5-39.5C349.3,76.8,331.6,59,309.8,59z M338,98.4c0,15.2-12.4,27.5-27.5,27.5c-15.2,0-27.6-12.4-27.6-27.5
			c0-15.2,12.4-27.5,27.6-27.5C325.7,70.9,338,83.2,338,98.4z"/>
		<path fill="#FFFFFF" d="M477.1,59c-21.8,0-39.5,17.7-39.5,39.5c0,21.8,17.7,39.5,39.5,39.5c8.1,0,15.9-2.4,22.5-7.1l0.7-0.5v-15.7
			l-3,3c-5.2,5.3-12.2,8.2-19.6,8.2c-15.2,0-27.5-12.4-27.5-27.5c0-15.2,12.4-27.5,27.5-27.5c7.4,0,14.4,2.9,19.6,8.2l3,3V66.6
			l-0.7-0.5C492.9,61.5,485.2,59,477.1,59z"/>
		<path fill="#FFFFFF" d="M615.8,60.5c-9.9,0-19.6,3.8-26.9,10.5V37.4h-12.6V100c0,21.8,17.7,39.5,39.5,39.5
			c21.8,0,39.5-17.7,39.5-39.5C655.3,78.2,637.6,60.5,615.8,60.5z M644,100.1c0,15.2-12.4,27.5-27.5,27.5
			c-15.2,0-27.5-12.3-27.5-27.5c0-15.2,12.4-27.6,27.5-27.6C631.7,72.5,644,84.9,644,100.1z"/>
		<path fill="#FFFFFF" d="M738.9,96.7c-1-20.8-18.6-37.7-39.4-37.7c-21.8,0-39.5,17.7-39.5,39.5c0,21.8,17.7,39.5,39.5,39.5
			c9.9,0,19.6-3.8,26.8-10.5v8.3h12.6V98.4L738.9,96.7L738.9,96.7z M726.3,98.4c0,15.2-12.4,27.5-27.5,27.5
			c-15.2,0-27.5-12.4-27.5-27.5c0-15.2,12.4-27.5,27.5-27.5C713.9,70.9,726.3,83.2,726.3,98.4z"/>
		<path fill="#FFFFFF" d="M783,59c-21.8,0-39.5,17.7-39.5,39.5c0,21.8,17.7,39.5,39.5,39.5c8.1,0,15.9-2.4,22.5-7.1l0.7-0.5v-15.7
			l-3,3c-5.2,5.3-12.2,8.2-19.6,8.2c-15.2,0-27.5-12.4-27.5-27.5c0-15.2,12.4-27.5,27.5-27.5c7.4,0,14.4,2.9,19.6,8.2l3,3V66.6
			l-0.7-0.5C798.9,61.5,791.1,59,783,59z"/>
		<polygon fill="#FFFFFF" points="835.3,95 878,57.9 858.7,57.9 826.8,85.7 826.8,36.9 813.9,36.9 813.9,135.3 826.8,135.3 
			826.8,104.2 861.2,134.9 861.7,135.3 880.2,135.3 		"/>
		<polygon fill="#FFFFFF" points="529.3,95 572,57.9 552.8,57.9 520.9,85.7 520.9,36.9 507.9,36.9 507.9,135.3 520.9,135.3 
			520.9,104.2 555.2,134.9 555.7,135.3 574.3,135.3 		"/>
	</g>
</g>
</svg>
